<svg width="22" height="18" viewBox="0 0 22 18" fill="none" xmlns="http://www.w3.org/2000/svg">
    <path d="M19.472 0.939868C19.6085 0.8006 19.7714 0.689963 19.9512 0.614433C20.1309 0.538904 20.324 0.5 20.519 0.5C20.714 0.5 20.907 0.538904 21.0868 0.614433C21.2666 0.689963 21.4295 0.8006 21.566 0.939868C22.138 1.51787 22.146 2.45187 21.586 3.03987L9.75999 17.0199C9.62572 17.1673 9.46279 17.2858 9.28115 17.3681C9.09951 17.4504 8.90299 17.4948 8.7036 17.4985C8.50422 17.5023 8.30617 17.4653 8.12157 17.3899C7.93697 17.3145 7.7697 17.2022 7.62999 17.0599L0.433991 9.76787C0.156465 9.48484 0.00100708 9.10426 0.00100708 8.70787C0.00100708 8.31148 0.156465 7.9309 0.433991 7.64787C0.570483 7.5086 0.733388 7.39796 0.913168 7.32243C1.09295 7.2469 1.28599 7.208 1.48099 7.208C1.67599 7.208 1.86903 7.2469 2.04881 7.32243C2.22859 7.39796 2.3915 7.5086 2.52799 7.64787L8.63199 13.8339L19.432 0.983868C19.4444 0.968412 19.4578 0.953718 19.472 0.939868Z" fill="#F27217"/>
</svg>