<svg width="11" height="10" viewBox="0 0 11 10" fill="none" xmlns="http://www.w3.org/2000/svg">
    <path d="M8.7125 1.21261C8.88858 1.04497 9.1229 0.952289 9.36602 0.954128C9.60914 0.955968 9.84203 1.05218 10.0156 1.22247C10.1891 1.39275 10.2897 1.62379 10.2961 1.86682C10.3025 2.10986 10.2143 2.34589 10.05 2.52511L5.0625 8.76261C4.97674 8.85498 4.87323 8.92911 4.75816 8.98056C4.6431 9.03202 4.51884 9.05974 4.39281 9.06208C4.26679 9.06441 4.14159 9.04131 4.02469 8.99415C3.9078 8.94699 3.80162 8.87674 3.7125 8.78761L0.404999 5.48011C0.31289 5.39428 0.239012 5.29078 0.187772 5.17578C0.136533 5.06078 0.10898 4.93664 0.106759 4.81076C0.104538 4.68488 0.127694 4.55984 0.174845 4.44311C0.221997 4.32637 0.292177 4.22033 0.381201 4.13131C0.470224 4.04228 0.576266 3.9721 0.693002 3.92495C0.809737 3.8778 0.934773 3.85465 1.06065 3.85687C1.18653 3.85909 1.31067 3.88664 1.42567 3.93788C1.54067 3.98912 1.64417 4.063 1.73 4.15511L4.3475 6.77136L8.68875 1.24011C8.69656 1.23048 8.70491 1.2213 8.71375 1.21261H8.7125Z" fill="#F27217"/>
</svg>